<svg width="28.000000" height="28.000000" viewBox="0 0 28 28" fill="none" xmlns="http://www.w3.org/2000/svg" xmlns:xlink="http://www.w3.org/1999/xlink">
	<desc>
			Created with Pixso.
	</desc>
	<defs/>
	<path id="Vector 618 (Stroke)" d="M4.08 3.58C4.4 3.27 4.92 3.27 5.24 3.58L14 12.34L22.75 3.58C23.07 3.27 23.59 3.27 23.91 3.58C24.22 3.9 24.22 4.42 23.91 4.74L15.15 13.5L23.91 22.25C24.22 22.57 24.22 23.09 23.91 23.41C23.59 23.72 23.07 23.72 22.75 23.41L14 14.65L5.24 23.41C4.92 23.72 4.4 23.72 4.08 23.41C3.76 23.09 3.76 22.57 4.08 22.25L12.84 13.5L4.08 4.74C3.76 4.42 3.76 3.9 4.08 3.58Z" fill="#FFFFFF" fill-opacity="0.400000" fill-rule="evenodd"/>
</svg>
