<svg width="43.000000" height="42.000000" viewBox="0 0 43 42" fill="none" xmlns="http://www.w3.org/2000/svg" xmlns:xlink="http://www.w3.org/1999/xlink">
	<desc>
			Created with Pixso.
	</desc>
	<defs/>
	<path id="Vector" d="M36.44 14.27L19.68 14.27C18.96 14.27 18.33 13.91 17.96 13.36C17.74 12.82 17.62 12.22 17.62 11.6L17.62 5.15C17.62 5.13 17.62 5.1 17.62 5.08C17.69 4 18.08 2.93 18.8 2.03C18.92 1.88 19.06 1.73 19.2 1.58C20.26 0.52 21.65 0 23.03 0C24.42 0 25.81 0.52 26.87 1.58L36.1 10.82C37.37 11.96 37.79 12.33 37.92 12.96C38.04 13.58 37.66 14.34 36.44 14.27Z" fill="#FFFFFF" fill-opacity="1.000000" fill-rule="nonzero"/>
	<path id="Vector" d="M28.09 35.86L28.09 19.1C28.09 18.38 28.46 17.75 29.01 17.38C29.55 17.16 30.14 17.04 30.76 17.04L37.22 17.04C37.24 17.04 37.26 17.04 37.28 17.04C38.36 17.11 39.44 17.5 40.33 18.22C40.49 18.35 40.64 18.48 40.78 18.62C41.84 19.68 42.37 21.07 42.37 22.45C42.37 23.84 41.84 25.23 40.78 26.29L31.55 35.52C30.41 36.8 30.04 37.21 29.4 37.34C28.79 37.46 28.03 37.09 28.09 35.86Z" fill="#FFFFFF" fill-opacity="1.000000" fill-rule="nonzero"/>
	<path id="Vector" d="M14.27 5.61L14.27 22.38C14.27 23.09 13.91 23.73 13.35 24.1C12.81 24.31 12.22 24.43 11.6 24.43L5.14 24.43C5.12 24.43 5.1 24.43 5.08 24.43C4 24.37 2.93 23.97 2.03 23.25C1.87 23.13 1.73 23 1.58 22.85C0.52 21.8 0 20.41 0 19.02C0 17.64 0.52 16.25 1.58 15.19L10.81 5.95C11.95 4.68 12.32 4.26 12.96 4.13C13.57 4.01 14.34 4.39 14.27 5.61Z" fill="#FFFFFF" fill-opacity="1.000000" fill-rule="nonzero"/>
	<path id="Vector" d="M6.56 27.21L23.32 27.21C24.04 27.21 24.67 27.57 25.04 28.12C25.26 28.67 25.37 29.26 25.37 29.88L25.37 36.34C25.37 36.36 25.37 36.38 25.37 36.4C25.31 37.48 24.92 38.56 24.2 39.45C24.07 39.61 23.94 39.76 23.8 39.9C22.74 40.96 21.35 41.49 19.96 41.49C18.58 41.49 17.19 40.96 16.13 39.9L6.9 30.67C5.63 29.53 5.21 29.16 5.08 28.52C4.96 27.9 5.34 27.14 6.56 27.21Z" fill="#FFFFFF" fill-opacity="1.000000" fill-rule="nonzero"/>
</svg>
